# xmcd
#
# Track frame offsets: 
#        150
#        7255
#        26682
#        40485
#        63975
#        77157
#        86162
#        92380
#        102340
#        113695
#        122800
#        138857
#        145317
#        154957
#        167937
#        187275
#        194090
#        199450
#        214200
#        229277
#        245537
#        255660
#        266672
#        275982
#        288710
#
# Disc length: 4052 seconds
#
# Revision: 3
# Processed by: cddbd v1.5.2PL0 Copyright (c) Steve Scherf et al.
# Submitted via: ExactAudioCopy v0.99pb5
#
DISCID=930fd219
DTITLE=Various Artist - Historische Orgel in Nederland, het  cd 01 - Oosthuiz
DTITLE=en, Krewerd, Midwolde, Blessum, Zutphen
DYEAR=2000
DGENRE=Orgel
TTITLE0=Susato - Mohrentanz ∑ Oosthuizen ∑ Jacques van Oortmerssen
TTITLE1=Susato - Pass et medio and Nachtanz "Der Stoﬂ" ∑ Oosthuizen ∑ Ja
TTITLE1=cques van Oortmerssen
TTITLE2=Susato - Allemande and Nachtanz ∑ Hervormde Kerk Oosthuizen ∑ Ja
TTITLE2=cques van Oortmerssen
TTITLE3=Sweelinck - Toccata in C ∑ Hervormde Kerk Oosthuizen ∑ Jacques
TTITLE3=van Oortmerssen
TTITLE4=Anonymus (Soldt Manuscript) - (..) den 36 sallem - (..) den 68
TTITLE4=sallem ∑ Krewerd ∑ Okke Dijkhuizen
TTITLE5=Anonymus - Bewaert mij Heer Weest doch myn toeverlaet, den 16 
TTITLE5=sallem ∑ Krewerd ∑ Okke Dijkhuizen
TTITLE6=Anonymus - Psalm 5 ∑ Krewerd ∑ Okke Dijkhuizen
TTITLE7=Anonymus (Psalmvaraties Lynar B7) - Psalm 100, var 1 and 2 ∑ Kre
TTITLE7=werd ∑ Okke Dijkhuizen
TTITLE8=Anonymus (Psalmvaraties Lynar B7) - Psalm 100, var 3 and 4 ∑ Kre
TTITLE8=werd ∑ Okke Dijkhuizen
TTITLE9=Tomkins - Toy - made at Poole Court ∑ Midwolde ∑ Margreet Prins
TTITLE9=en
TTITLE10=Bull - In Nomine ∑ Midwolde ∑ Margreet Prinsen
TTITLE11=Anonymus (Soldt Manuscript) - Almande Brun Smeedelyn ∑ Midwol
TTITLE11=de ∑ Margreet Prinsen
TTITLE12=Steenwick - Serband ∑ Midwolde ∑ Margreet Prinsen
TTITLE13=Gibbons - Fantasia X in a ∑ Midwolde ∑ Margreet Prinsen
TTITLE14=Anonymus (17e eeuw) - Tiento Ileno 3∞ tono ∑ Blessum ∑ Jan Jo
TTITLE14=ngepier
TTITLE15=Staden - Balletto a 4 ∑ Blessum ∑ Jan Jongepier
TTITLE16=Staden - Courante ∑ Blessum ∑ Jan Jongepier
TTITLE17=Kerll - Canzona in d ∑ Blessum ∑ Jan Jongepier
TTITLE18=Pachelbel - Allein zu dir Herr Jesu Christ ∑ Hervormde Kerk B
TTITLE18=lessum ∑ Jan Jongepier
TTITLE19=Praetorius - Vater unser im Himmelreich, versus 1 ∑ St-Walbur
TTITLE19=giskerk Zutphen ∑ Bert Matter
TTITLE20=Praetorius - Vater unser im Himmelreich, versus 2 ∑ St-Walbur
TTITLE20=giskerk Zutphen ∑ Bert Matter
TTITLE21=Praetorius - Vater unser im Himmelreich, versus 3 ∑ St-Walbur
TTITLE21=giskerk Zutphen ∑ Bert Matter
TTITLE22=Praetorius - Vater unser im Himmelreich, versus 4 ∑ St-Walbur
TTITLE22=giskerk Zutphen ∑ Bert Matter
TTITLE23=Praetorius - Vater unser im Himmelreich, versus 5 ∑ St-Walbur
TTITLE23=giskerk Zutphen ∑ Bert Matter
TTITLE24=Praetorius - Vater unser im Himmelreich, versus 6 ∑ St-Walbur
TTITLE24=giskerk Zutphen ∑ Bert Matter
EXTD=
EXTT0=
EXTT1=
EXTT2=
EXTT3=
EXTT4=
EXTT5=
EXTT6=
EXTT7=
EXTT8=
EXTT9=
EXTT10=
EXTT11=
EXTT12=
EXTT13=
EXTT14=
EXTT15=
EXTT16=
EXTT17=
EXTT18=
EXTT19=
EXTT20=
EXTT21=
EXTT22=
EXTT23=
EXTT24=
PLAYORDER=
